<svg width="148" height="28" viewBox="0 0 148 28" fill="none" xmlns="http://www.w3.org/2000/svg">
<mask id="mask0_388_534" style="mask-type:alpha" maskUnits="userSpaceOnUse" x="0" y="0" width="148" height="28">
<rect width="148" height="28" fill="white"/>
</mask>
<g mask="url(#mask0_388_534)">
<path d="M33.0324 22.0909V13.4669H31.3979V10.9997H33.0324V9.44247C32.9583 8.10878 33.3631 6.79236 34.1743 5.72924C34.9261 4.82284 36.0592 4.31821 37.238 4.36478C38.3139 4.37689 39.3733 4.63051 40.3374 5.10678L39.6892 7.52663C39.4178 7.38728 39.1315 7.2789 38.8358 7.20355C38.5424 7.12112 38.2396 7.07696 37.9348 7.07216C36.8135 7.07216 36.2528 7.82278 36.2528 9.32401V11.0008H39.323V13.468H36.2528V22.092L33.0324 22.0909Z" fill="white"/>
<path d="M51.2707 12.3168C50.3672 12.3167 49.4741 12.5087 48.651 12.8801C47.9208 13.201 47.332 13.7749 46.9938 14.4954V22.0899H43.7734V9.53837H46.7291V12.221C47.1237 11.4046 47.7036 10.6911 48.423 10.1371C49.0465 9.63593 49.8205 9.3576 50.6214 9.34668C50.7986 9.34668 50.9304 9.34668 51.0179 9.35853C51.1027 9.36615 51.1871 9.37801 51.2707 9.39406V12.3168Z" fill="white"/>
<path fill-rule="evenodd" clip-rule="evenodd" d="M60.9751 22.3298C60.0286 22.3441 59.0891 22.1645 58.215 21.802C57.431 21.4745 56.7231 20.9895 56.1354 20.3773C55.5674 19.7793 55.1226 19.0761 54.8261 18.3074C54.2194 16.7115 54.2194 14.9495 54.8261 13.3536C55.1223 12.5838 55.5672 11.8795 56.1354 11.2805C56.7237 10.6689 57.4315 10.184 58.215 9.85572C59.0899 9.49338 60.0301 9.31413 60.9773 9.3291C61.9215 9.31314 62.8587 9.49245 63.7299 9.85572C65.2863 10.5144 66.5057 11.7777 67.1058 13.3536C67.714 14.9492 67.714 16.7118 67.1058 18.3074C66.8113 19.0747 66.3711 19.7782 65.8095 20.3794C65.226 20.9931 64.5197 21.4778 63.7364 21.802C62.8619 22.1646 61.9221 22.3442 60.9751 22.3298ZM57.9407 17.3588C57.7666 16.8709 57.681 16.356 57.6879 15.8382V15.8371C57.6831 15.3237 57.7687 14.8134 57.9407 14.3294C58.0948 13.8896 58.3312 13.4828 58.6375 13.1308C58.9286 12.7997 59.2839 12.5308 59.6821 12.3404C60.0868 12.1478 60.5301 12.0495 60.9785 12.0528C61.4255 12.0498 61.8679 12.1438 62.2748 12.3285C62.674 12.5121 63.0299 12.7774 63.3194 13.1071C63.626 13.4585 63.8625 13.8649 64.0162 14.3047C64.188 14.7887 64.2736 15.2989 64.269 15.8124C64.2753 16.334 64.1897 16.8526 64.0162 17.3448C63.8623 17.7848 63.6258 18.1915 63.3194 18.5434C63.0296 18.8726 62.6737 19.1375 62.2748 19.321C61.4497 19.6875 60.5072 19.6875 59.6821 19.321C59.2832 19.1375 58.9273 18.8726 58.6375 18.5434C58.3334 18.1951 58.0971 17.7934 57.9407 17.3588Z" fill="white"/>
<path d="M83.7848 22.0911H80.5645V15.048C80.6256 14.2762 80.4403 13.505 80.0351 12.8446C79.6922 12.3857 79.1438 12.1257 78.5703 12.15C78.2328 12.153 77.8988 12.218 77.585 12.3417C77.2428 12.4718 76.9226 12.6534 76.6355 12.8801C76.3318 13.1188 76.0611 13.3966 75.8306 13.7061C75.5915 14.0227 75.4121 14.3799 75.3013 14.7604V22.0911H72.082V9.53844H74.9902V11.8624C75.4631 11.0547 76.1653 10.4046 77.0082 9.99398C77.9334 9.53665 78.955 9.3066 79.9876 9.32306C80.6554 9.29553 81.3187 9.44412 81.9105 9.75383C82.3864 10.0216 82.7838 10.4088 83.0632 10.8771C83.3452 11.366 83.5366 11.9015 83.6282 12.458C83.7325 13.0511 83.7849 13.6521 83.7848 14.2543V22.0911Z" fill="white"/>
<path d="M96.4718 21.4436C95.9513 21.6668 95.4177 21.8585 94.8741 22.0176C94.2314 22.2116 93.5632 22.3089 92.8917 22.3063C92.4654 22.3087 92.0407 22.2522 91.6299 22.1383C91.2513 22.0338 90.8993 21.8502 90.5972 21.5998C90.2895 21.3392 90.0466 21.0112 89.8874 20.6413C89.699 20.1901 89.6088 19.7041 89.6228 19.2155V12.0001H87.9883V9.53826H89.6228V5.46533H92.8431V9.53826H95.5104V12.0055H92.8431V18.1375C92.8051 18.4923 92.9391 18.844 93.2039 19.0841C93.4528 19.2701 93.7573 19.3668 94.0682 19.3587C94.4041 19.3592 94.7376 19.3028 95.0545 19.1918C95.3732 19.0841 95.6313 18.9839 95.8226 18.9043L96.4718 21.4436Z" fill="white"/>
<path fill-rule="evenodd" clip-rule="evenodd" d="M103.607 21.8151C104.477 22.1681 105.409 22.3431 106.347 22.3299V22.3309C107.623 22.3651 108.883 22.046 109.987 21.4091C110.945 20.8579 111.718 20.0366 112.209 19.0485L109.447 18.2828C109.216 18.8176 108.803 19.2542 108.281 19.5159C107.726 19.8237 107.101 19.9846 106.466 19.9833C106.056 19.9847 105.649 19.9118 105.265 19.7679C104.488 19.4794 103.852 18.9051 103.487 18.1633C103.286 17.7501 103.164 17.3036 103.126 16.8462H112.857C112.893 16.6888 112.913 16.5283 112.918 16.3669C112.93 16.1753 112.93 15.976 112.93 15.7682C112.932 14.9338 112.781 14.106 112.485 13.3257C112.198 12.5577 111.757 11.8563 111.188 11.2645C110.601 10.6609 109.898 10.1805 109.122 9.85156C108.251 9.48838 107.314 9.30907 106.37 9.32494C105.419 9.31064 104.474 9.48982 103.595 9.85156C102.804 10.1799 102.089 10.6646 101.492 11.2763C100.915 11.8757 100.466 12.5848 100.171 13.3613C99.8639 14.168 99.7089 15.0246 99.7145 15.8877C99.7107 16.7325 99.8699 17.5701 100.183 18.3549C100.486 19.1232 100.939 19.8236 101.516 20.4151C102.112 21.0172 102.823 21.4934 103.607 21.8151ZM108.569 12.4997C109.197 13.0904 109.572 13.901 109.614 14.7613L103.078 14.7634C103.104 14.3234 103.214 13.8923 103.403 13.4937C103.576 13.1258 103.817 12.7928 104.111 12.5116C104.401 12.2392 104.739 12.0236 105.108 11.8762C105.495 11.7233 105.907 11.6462 106.323 11.649C107.154 11.6302 107.96 11.9354 108.569 12.4997Z" fill="white"/>
<path fill-rule="evenodd" clip-rule="evenodd" d="M119.936 21.6591C120.653 21.9993 121.438 22.1713 122.231 22.162C123.076 22.1663 123.91 21.9648 124.66 21.5751C125.393 21.2007 126.003 20.6224 126.414 19.9101V21.4857C126.426 22.0284 126.323 22.5675 126.111 23.0677C125.928 23.4927 125.648 23.8694 125.294 24.1683C124.942 24.4609 124.533 24.6773 124.092 24.8037C123.629 24.9406 123.148 25.0092 122.664 25.0072C121.855 25.0125 121.055 24.8408 120.32 24.5043C119.616 24.1872 118.996 23.7117 118.507 23.1151L116.753 24.8155C117.404 25.6293 118.23 26.2881 119.168 26.7443C120.267 27.232 121.462 27.4651 122.664 27.426C123.608 27.4354 124.548 27.2984 125.45 27.02C126.256 26.7717 127.006 26.3734 127.663 25.8461C128.283 25.3419 128.781 24.7052 129.12 23.9831C129.474 23.2008 129.65 22.3502 129.635 21.4921V9.5383H126.827V11.7385C126.372 11.0173 125.751 10.4148 125.016 9.98091C124.229 9.52912 123.332 9.30151 122.423 9.32291C120.809 9.29818 119.267 9.99177 118.218 11.2151C117.696 11.8234 117.288 12.521 117.015 13.2741C116.722 14.0886 116.576 14.9483 116.583 15.8135C116.578 16.6455 116.717 17.4721 116.994 18.2571C117.249 18.9971 117.64 19.6836 118.146 20.2817C118.638 20.8623 119.249 21.3318 119.936 21.6591ZM124.348 19.4307C124.023 19.5432 123.682 19.6001 123.339 19.5987V19.5976C122.862 19.6021 122.391 19.504 121.956 19.3101C121.538 19.1232 121.162 18.8544 120.851 18.5196C120.535 18.1779 120.286 17.7796 120.118 17.3458C119.939 16.8878 119.848 16.3998 119.853 15.9081C119.852 15.42 119.929 14.935 120.083 14.4715C120.226 14.0236 120.45 13.6054 120.744 13.2373C121.029 12.8817 121.384 12.5885 121.787 12.3758C122.207 12.1579 122.674 12.0469 123.146 12.0527C123.843 12.0612 124.518 12.2968 125.068 12.7236C125.678 13.1737 126.146 13.7889 126.415 14.4962V17.4901C126.298 17.785 126.135 18.06 125.933 18.3053C125.727 18.5587 125.488 18.7842 125.224 18.9762C124.956 19.1695 124.66 19.3226 124.348 19.4307Z" fill="white"/>
<path fill-rule="evenodd" clip-rule="evenodd" d="M137.549 21.6588C138.265 21.9989 139.049 22.171 139.842 22.1618C140.687 22.1659 141.519 21.9644 142.268 21.5748C143.001 21.2005 143.611 20.6222 144.022 19.9099V21.4908C144.034 22.0335 143.932 22.5726 143.721 23.0728C143.537 23.4978 143.257 23.8746 142.903 24.1735C142.551 24.4661 142.142 24.6824 141.701 24.8088C141.238 24.9457 140.756 25.0142 140.272 25.0124C139.464 25.0176 138.664 24.8459 137.929 24.5095C137.225 24.1924 136.604 23.7168 136.115 23.1202L134.364 24.8153C135.016 25.6288 135.841 26.2876 136.78 26.7441C137.878 27.2316 139.073 27.4647 140.275 27.4258C141.22 27.4352 142.16 27.2982 143.063 27.0198C143.868 26.7717 144.618 26.3733 145.274 25.8459C145.892 25.3414 146.388 24.7047 146.726 23.9828C147.08 23.2006 147.256 22.35 147.242 21.4919V9.53807H144.434V11.7382C143.98 11.0176 143.361 10.4151 142.627 9.98068C141.84 9.52878 140.943 9.30117 140.035 9.32268C138.42 9.29812 136.879 9.99171 135.83 11.2148C135.307 11.8229 134.9 12.5206 134.628 13.2739C134.335 14.0883 134.188 14.9481 134.196 15.8133C134.19 16.6452 134.329 17.4718 134.605 18.2568C134.861 18.9965 135.252 19.6828 135.758 20.2815C136.25 20.8621 136.86 21.3316 137.549 21.6588ZM141.955 19.4307C141.631 19.5433 141.289 19.6001 140.945 19.5987V19.5976C140.469 19.6021 139.998 19.504 139.564 19.3101C139.145 19.1232 138.769 18.8544 138.457 18.5196C138.141 18.1779 137.893 17.7796 137.726 17.3458C137.546 16.8878 137.456 16.3998 137.46 15.9081C137.459 15.4201 137.537 14.9351 137.689 14.4715C137.833 14.0238 138.057 13.6057 138.35 13.2373C138.636 12.8817 138.991 12.5884 139.395 12.3758C139.814 12.1579 140.28 12.0469 140.753 12.0527C141.45 12.0611 142.126 12.2968 142.676 12.7236C143.286 13.1734 143.753 13.7888 144.022 14.4962V17.4901C143.905 17.7852 143.742 18.0603 143.54 18.3053C143.334 18.5584 143.096 18.7839 142.831 18.9762C142.563 19.1693 142.268 19.3224 141.955 19.4307Z" fill="white"/>
<path fill-rule="evenodd" clip-rule="evenodd" d="M6.7985 1.57979C9.56405 -0.38883 12.3296 0.215324 14.8877 2.98732V2.99163C17.4459 5.76686 20.2805 11.1827 19.3083 16.9249C19.1101 18.1647 18.6893 19.3587 18.0659 20.4496C16.8431 22.5078 14.8312 23.9799 12.4949 24.5258C9.90367 25.1882 7.15461 24.7969 4.85289 23.4381C4.56103 23.2533 4.28105 23.0504 4.01459 22.8307C1.97658 21.032 0.748254 18.493 0.605185 15.7833C0.492275 14.2758 0.603671 12.76 0.935754 11.285C1.23736 9.92995 1.69144 8.61316 2.28936 7.35963C3.28001 5.08512 4.83105 3.09699 6.7985 1.57979ZM4.63252 9.37993C4.94905 8.25455 6.06607 4.9764 8.70306 3.32763C8.83467 3.24683 8.91304 3.10218 8.90866 2.94816C8.90427 2.79414 8.81779 2.65415 8.68179 2.58093C8.5458 2.5077 8.38095 2.51237 8.24934 2.59316C6.69734 3.63011 5.46793 5.07991 4.70058 6.77809C4.33006 7.53975 4.02784 8.33258 3.79745 9.14732C3.76502 9.2625 3.7821 9.38594 3.84459 9.48807C3.90708 9.5902 4.00937 9.66182 4.12694 9.68578C4.35002 9.73276 4.57132 9.59888 4.63252 9.37993Z" fill="white"/>
<path d="M12.1211 26.5782C15.393 28.073 19.2335 27.5782 22.0166 25.3031C26.7007 21.4025 27.9981 13.4344 27.9981 13.4344C27.9981 13.4344 28.8256 9.30652 27.3024 6.92437C25.7792 4.54221 22.0166 4.56267 18.5737 5.73975C20.1122 8.86867 20.9595 12.2902 21.0583 15.7734C21.0147 21.0264 17.2879 25.5318 12.1233 26.575" fill="white"/>
</g>
</svg>
