<svg width="40" height="40" viewBox="0 0 40 40" fill="none" xmlns="http://www.w3.org/2000/svg">
<path fill-rule="evenodd" clip-rule="evenodd" d="M10.1164 3.73378C13.7159 1.17153 17.3154 1.95787 20.645 5.56575V5.57136C23.9745 9.18345 27.664 16.2324 26.3985 23.7061C26.1406 25.3198 25.5929 26.8739 24.7816 28.2938C23.19 30.9726 20.5713 32.8886 17.5306 33.5991C14.158 34.4612 10.5799 33.952 7.58415 32.1834C7.20427 31.9428 6.83986 31.6788 6.49305 31.3928C3.84049 29.0518 2.24177 25.7472 2.05556 22.2203C1.9086 20.2583 2.05359 18.2854 2.48581 16.3656C2.87837 14.6019 3.46937 12.888 4.24759 11.2565C5.53697 8.29614 7.55572 5.70849 10.1164 3.73378ZM7.29687 13.8858C7.70884 12.4211 9.1627 8.15444 12.5949 6.00849C12.7662 5.90333 12.8682 5.71505 12.8625 5.51459C12.8568 5.31412 12.7442 5.13192 12.5672 5.03662C12.3902 4.94132 12.1756 4.94739 12.0043 5.05255C9.98433 6.40218 8.38419 8.28917 7.38545 10.4994C6.9032 11.4908 6.50985 12.5227 6.20999 13.5831C6.16778 13.733 6.19 13.8937 6.27134 14.0266C6.35268 14.1595 6.48581 14.2527 6.63884 14.2839C6.92918 14.3451 7.21722 14.1708 7.29687 13.8858Z" fill="#2A2C3A"/>
<path d="M17.043 36.2707C21.3015 38.2162 26.3 37.5721 29.9224 34.6111C36.019 29.5343 37.7077 19.1633 37.7077 19.1633C37.7077 19.1633 38.7847 13.7907 36.8022 10.6903C34.8197 7.58978 29.9224 7.61641 25.4413 9.14843C27.4438 13.2209 28.5466 17.6742 28.6752 22.2077C28.6185 29.0448 23.7678 34.9086 17.0458 36.2665" fill="#2A2C3A"/>
</svg>
